<svg width="17" height="14" viewBox="0 0 17 14" fill="none" xmlns="http://www.w3.org/2000/svg">
<path fill-rule="evenodd" clip-rule="evenodd" d="M5.69139 9.70002C5.74598 9.76103 5.78929 9.8335 5.81884 9.91329C5.84839 9.99308 5.8636 10.0786 5.8636 10.165C5.8636 10.2514 5.84839 10.3369 5.81884 10.4167C5.78929 10.4965 5.74598 10.569 5.69139 10.63L3.34666 13.2571C3.29221 13.3182 3.22753 13.3667 3.15631 13.3999C3.0851 13.433 3.00875 13.45 2.93165 13.45C2.85454 13.45 2.7782 13.433 2.70698 13.3999C2.63577 13.3667 2.57108 13.3182 2.51663 13.2571L0.171905 10.63C0.0618362 10.5067 -3.66751e-09 10.3394 0 10.165C3.66751e-09 9.9906 0.0618362 9.82334 0.171905 9.70002C0.281975 9.5767 0.43126 9.50741 0.586922 9.50741C0.742583 9.50741 0.891869 9.5767 1.00194 9.70002L2.93165 11.8634L4.86136 9.70002C4.91581 9.63886 4.98049 9.59033 5.05171 9.55722C5.12292 9.52411 5.19927 9.50707 5.27637 9.50707C5.35348 9.50707 5.42982 9.52411 5.50104 9.55722C5.57225 9.59033 5.63694 9.63886 5.69139 9.70002ZM7.6211 8.85148C7.6211 8.67729 7.68286 8.51024 7.79279 8.38708C7.90272 8.26391 8.05182 8.19471 8.20728 8.19471H11.7244C11.8798 8.19471 12.0289 8.26391 12.1389 8.38708C12.2488 8.51024 12.3105 8.67729 12.3105 8.85148C12.3105 9.02566 12.2488 9.19271 12.1389 9.31588C12.0289 9.43905 11.8798 9.50824 11.7244 9.50824H8.20728C8.05182 9.50824 7.90272 9.43905 7.79279 9.31588C7.68286 9.19271 7.6211 9.02566 7.6211 8.85148ZM7.6211 4.91089C7.6211 4.73671 7.68286 4.56965 7.79279 4.44649C7.90272 4.32332 8.05182 4.25413 8.20728 4.25413H14.0691C14.2246 4.25413 14.3737 4.32332 14.4836 4.44649C14.5935 4.56965 14.6553 4.73671 14.6553 4.91089C14.6553 5.08508 14.5935 5.25213 14.4836 5.37529C14.3737 5.49846 14.2246 5.56766 14.0691 5.56766H8.20728C8.05182 5.56766 7.90272 5.49846 7.79279 5.37529C7.68286 5.25213 7.6211 5.08508 7.6211 4.91089ZM7.6211 0.970302C7.6211 0.796117 7.68286 0.629067 7.79279 0.5059C7.90272 0.382732 8.05182 0.313538 8.20728 0.313538H16.4138C16.5693 0.313538 16.7184 0.382732 16.8283 0.5059C16.9382 0.629067 17 0.796117 17 0.970302C17 1.14449 16.9382 1.31154 16.8283 1.4347C16.7184 1.55787 16.5693 1.62707 16.4138 1.62707H8.20728C8.05182 1.62707 7.90272 1.55787 7.79279 1.4347C7.68286 1.31154 7.6211 1.14449 7.6211 0.970302ZM7.6211 12.7921C7.6211 12.6179 7.68286 12.4508 7.79279 12.3277C7.90272 12.2045 8.05182 12.1353 8.20728 12.1353H9.37964C9.53511 12.1353 9.68421 12.2045 9.79414 12.3277C9.90407 12.4508 9.96582 12.6179 9.96582 12.7921C9.96582 12.9663 9.90407 13.1333 9.79414 13.2565C9.68421 13.3796 9.53511 13.4488 9.37964 13.4488H8.20728C8.05182 13.4488 7.90272 13.3796 7.79279 13.2565C7.68286 13.1333 7.6211 12.9663 7.6211 12.7921Z" fill="#0D65B3"/>
</svg>
