<svg width="13" height="13" viewBox="0 0 13 13" fill="none" xmlns="http://www.w3.org/2000/svg">
<path fill-rule="evenodd" clip-rule="evenodd" d="M12.7807 1.21888C12.8506 1.28854 12.906 1.37131 12.9438 1.46243C12.9816 1.55354 13.0011 1.65122 13.0011 1.74988C13.0011 1.84853 12.9816 1.94621 12.9438 2.03733C12.906 2.12844 12.8506 2.21121 12.7807 2.28088L2.28073 12.7809C2.1399 12.9217 1.94889 13.0008 1.74973 13.0008C1.55056 13.0008 1.35956 12.9217 1.21873 12.7809C1.0779 12.64 0.998779 12.449 0.998779 12.2499C0.998779 12.0507 1.0779 11.8597 1.21873 11.7189L11.7187 1.21888C11.7884 1.14903 11.8712 1.09362 11.9623 1.05581C12.0534 1.018 12.1511 0.998535 12.2497 0.998535C12.3484 0.998535 12.4461 1.018 12.5372 1.05581C12.6283 1.09362 12.7111 1.14903 12.7807 1.21888Z" fill="#C7C7C7"/>
<path fill-rule="evenodd" clip-rule="evenodd" d="M1.21888 1.21888C1.14903 1.28854 1.09362 1.37131 1.05581 1.46243C1.018 1.55354 0.998535 1.65122 0.998535 1.74988C0.998535 1.84853 1.018 1.94621 1.05581 2.03733C1.09362 2.12844 1.14903 2.21121 1.21888 2.28088L11.7189 12.7809C11.8597 12.9217 12.0507 13.0008 12.2499 13.0008C12.449 13.0008 12.64 12.9217 12.7809 12.7809C12.9217 12.64 13.0008 12.449 13.0008 12.2499C13.0008 12.0507 12.9217 11.8597 12.7809 11.7189L2.28088 1.21888C2.21121 1.14903 2.12844 1.09362 2.03733 1.05581C1.94621 1.018 1.84853 0.998535 1.74988 0.998535C1.65122 0.998535 1.55354 1.018 1.46243 1.05581C1.37131 1.09362 1.28854 1.14903 1.21888 1.21888Z" fill="#C7C7C7"/>
</svg>
