<svg width="18" height="17" viewBox="0 0 18 17" fill="none" xmlns="http://www.w3.org/2000/svg">
<path d="M17.3333 0.222229H0.66667C0.519328 0.222229 0.37802 0.280761 0.273833 0.384948C0.169646 0.489134 0.111115 0.630442 0.111115 0.777785V1.70556C0.111218 1.83678 0.137289 1.96667 0.187824 2.08777C0.238359 2.20886 0.312359 2.31875 0.405559 2.41112L6.77778 8.87778V14.5445L7.88889 14.9667V8.55556C7.88932 8.48245 7.8753 8.40997 7.84765 8.34228C7.82001 8.27459 7.77927 8.21303 7.72778 8.16112L1.22223 1.66112V1.33334H16.7778V1.67223L10.2944 8.16112C10.2389 8.21115 10.1941 8.27188 10.1626 8.33965C10.1311 8.40743 10.1136 8.48086 10.1111 8.55556V15.8945L11.2222 16.3333V8.83334L17.5944 2.44445C17.6892 2.34974 17.764 2.23707 17.8145 2.11305C17.8651 1.98903 17.8904 1.85615 17.8889 1.72223V0.777785C17.8889 0.630442 17.8304 0.489134 17.7262 0.384948C17.622 0.280761 17.4807 0.222229 17.3333 0.222229Z" fill="#0D65B3"/>
</svg>
