<svg width="175" height="59" viewBox="0 0 175 59" fill="none" xmlns="http://www.w3.org/2000/svg">
<path d="M89.0018 35.8328L88.8721 35.7549C88.2233 35.4111 87.9703 34.4575 87.6849 33.6985L84.3828 24.8562H81.23V25.1416L81.4116 25.2065C81.4934 25.2314 81.5719 25.2663 81.6452 25.3103C81.8268 25.4401 81.963 25.6412 81.7555 26.2121C81.6711 26.4586 81.5998 26.6467 81.5998 26.6467C81.5998 26.6467 79.0048 33.6855 79.0048 33.692C78.7323 34.4704 78.4923 35.4176 77.8501 35.7614L77.636 35.8458V36.1247H81.1716V35.8458L80.9186 35.742C80.6072 35.6187 80.5229 35.3138 80.8602 34.3602L81.2624 33.0627H85.0251C85.1224 33.3222 85.2392 33.7114 85.4208 34.2434C85.6025 34.7754 85.8619 35.5409 85.4792 35.7355L85.2521 35.8263V36.1053H89.0407L89.0018 35.8328ZM84.4088 31.2916H81.8787L83.1243 27.8144L84.4088 31.2916Z" fill="#004785"/>
<path d="M111.999 24.8562V25.1352L112.259 25.239C112.667 25.4076 112.661 26.4521 112.648 27.0749V33.8931C112.648 34.4575 112.648 35.5863 112.265 35.742L111.999 35.8393V36.1182H115.626V35.8458L115.366 35.742C114.957 35.5733 114.97 34.4445 114.977 33.8931V27.0943C114.977 26.1472 115.094 25.3428 115.366 25.226L115.626 25.1222V24.8562H111.999Z" fill="#004785"/>
<path d="M98.4604 24.8562V25.1352L98.7199 25.239C99.1286 25.4076 99.1156 26.4521 99.1091 27.0749V33.8931C99.1091 34.4575 99.1091 35.5863 98.7199 35.742L98.4604 35.8393V36.1182H102.08V35.8458L101.821 35.742C101.412 35.5733 101.419 34.4445 101.425 33.8931V27.0943C101.425 26.1472 101.548 25.3428 101.821 25.226L102.08 25.1222V24.8562H98.4604Z" fill="#004785"/>
<path d="M138.195 27.0619C138.195 26.4132 138.195 25.3947 137.806 25.226L137.547 25.1222V24.8562H141.173V25.1352L140.913 25.239C140.641 25.3557 140.505 26.1602 140.524 27.1073V33.8931C140.524 34.4575 140.524 35.5733 140.913 35.742L141.173 35.8458V36.1182H137.547V35.8393L137.813 35.742C138.215 35.5863 138.202 34.4445 138.195 33.8931V27.0619Z" fill="#004785"/>
<path d="M78.2845 23.896C77.3488 23.0234 76.1055 22.5569 74.8268 22.5985H70.2013V22.9099L70.4348 22.9877C71.0252 23.2602 70.9992 24.7393 70.9992 25.8033V33.2183C70.9992 34.0162 70.9992 35.4889 70.4348 35.7289L70.1818 35.8392V36.1181H74.4245V35.8392L74.2429 35.7484C73.4839 35.2488 73.4839 34.159 73.4839 33.0302V30.6558L73.938 30.818C74.3751 30.9683 74.8319 31.0535 75.2938 31.071C77.2401 31.071 79.3939 29.7151 79.3939 26.7504C79.4093 26.2246 79.3191 25.701 79.1285 25.2107C78.938 24.7204 78.651 24.2733 78.2845 23.896ZM74.0872 29.9811L73.7109 30.0135H73.4839V24.9599C73.8243 24.9232 74.1665 24.9058 74.5089 24.908C75.2168 24.8665 75.9136 25.0988 76.4551 25.5567C76.6461 25.7675 76.7928 26.0145 76.8864 26.2831C76.98 26.5517 77.0186 26.8364 77 27.1202C76.9644 27.8764 76.6445 28.5912 76.1044 29.1216C75.5644 29.6521 74.8439 29.9591 74.0872 29.9811Z" fill="#004785"/>
<path d="M97.3055 33.0757L97.2341 33.1341C97.1574 33.1929 97.0773 33.247 96.9941 33.2962C96.1495 33.866 95.164 34.1915 94.1462 34.2369C93.7482 34.2511 93.3514 34.1842 92.9801 34.0403C92.6087 33.8965 92.2705 33.6786 91.9859 33.4C91.2225 32.5279 90.8312 31.3914 90.896 30.2342C90.896 28.1712 92.1156 26.7375 93.8542 26.7375C94.7314 26.7565 95.5812 27.0466 96.287 27.5679L96.514 27.7236L96.9357 28.022V25.0833L96.6308 24.9989C95.7416 24.7468 94.8237 24.6095 93.8996 24.5902C93.1931 24.5743 92.4905 24.6998 91.8332 24.9594C91.1759 25.2189 90.5771 25.6074 90.0721 26.1018C88.9787 27.287 88.3981 28.8563 88.4568 30.4678C88.4226 31.2563 88.5455 32.0437 88.8184 32.7844C89.0912 33.525 89.5086 34.2039 90.0462 34.7818C90.6253 35.3219 91.3062 35.7411 92.0491 36.0151C92.792 36.2891 93.5821 36.4124 94.3732 36.3777C95.1933 36.3958 96.0056 36.2156 96.7411 35.8523H96.7865L96.8773 35.8068L96.9163 35.7095L97.6818 33.1146L97.3055 33.0757Z" fill="#004785"/>
<path d="M125.097 33.0757L124.786 33.2897C123.941 33.8595 122.956 34.185 121.938 34.2304C121.54 34.2446 121.143 34.1777 120.772 34.0338C120.4 33.89 120.062 33.6721 119.778 33.3935C119.014 32.5214 118.623 31.3849 118.688 30.2277C118.688 28.1647 119.907 26.731 121.646 26.731C122.523 26.75 123.373 27.0401 124.079 27.5614L124.727 28.0155V25.0833L124.423 24.9989C123.533 24.7464 122.616 24.609 121.691 24.5902C120.985 24.5743 120.282 24.6998 119.625 24.9594C118.968 25.2189 118.369 25.6074 117.864 26.1018C116.761 27.2829 116.171 28.8527 116.223 30.4678C116.188 31.2563 116.311 32.0437 116.584 32.7844C116.857 33.525 117.274 34.2039 117.812 34.7818C118.391 35.3219 119.072 35.7411 119.815 36.0151C120.558 36.2891 121.348 36.4124 122.139 36.3777C122.959 36.3958 123.771 36.2156 124.507 35.8523L124.643 35.7874L125.435 33.0757H125.097Z" fill="#004785"/>
<path d="M110.092 24.8563H103.495V25.1352L103.754 25.239C104.163 25.4077 104.15 26.4522 104.143 27.0814V33.8931C104.143 34.4575 104.143 35.5863 103.754 35.742L103.495 35.8393V36.1183H107.115V35.8458L106.861 35.742C106.453 35.5734 106.459 34.4446 106.466 33.8931V31.6355H108.483C108.483 31.6355 109.353 31.5642 109.482 31.9275L109.541 32.0832L109.781 32.1286L109.936 29.1185H109.638L109.58 29.3066C109.502 29.5531 108.71 29.6115 108.483 29.5985H106.466C106.466 28.6189 106.466 27.3604 106.466 26.8284H109.139C109.735 26.8284 110.053 26.9647 110.164 27.2825L110.222 27.4642H110.514L111.163 24.7849C111.163 24.7849 110.293 24.8563 110.092 24.8563Z" fill="#004785"/>
<path d="M149.088 24.8561H142.49V25.1351L142.749 25.2389C143.165 25.4075 143.152 26.452 143.145 27.0813V33.893C143.145 34.4574 143.145 35.5862 142.756 35.7419L142.49 35.8392V36.1181H146.116V35.8457L145.863 35.7419C145.455 35.5732 145.461 34.4444 145.468 33.893V31.6354H147.492C147.492 31.6354 148.355 31.564 148.491 31.9273L148.549 32.083L148.789 32.1284L148.945 29.1183H148.646L148.588 29.3064C148.504 29.5529 147.719 29.6113 147.492 29.5984H145.474V26.8023H148.14C148.737 26.8023 149.055 26.9385 149.165 27.2564L149.224 27.4381H149.496L150.145 24.7588C150.145 24.7588 149.295 24.8561 149.088 24.8561Z" fill="#004785"/>
<path d="M158.377 33.3675C157.515 33.972 156.478 34.2773 155.426 34.2368C154.87 34.2588 154.313 34.2064 153.771 34.0811V31.2007H155.419C155.419 31.2007 156.295 31.2007 156.418 31.4927L156.477 31.6484L156.736 31.7002L156.879 28.9237H156.574L156.515 29.1118C156.438 29.3583 155.692 29.3972 155.465 29.3908H153.765V26.8023H155.925C156.522 26.8023 157.073 26.8023 157.223 27.2564L157.287 27.4381H157.566L158.085 24.7588C158.085 24.7588 157.223 24.8237 157.021 24.8237H150.794V25.1026L151.053 25.2064C151.468 25.3751 151.455 26.4196 151.449 27.0488V33.893C151.449 34.4249 151.449 35.5148 151.118 35.7354C151.014 35.7821 150.905 35.8169 150.794 35.8392V36.1181H158.001L158.689 33.3675H158.377Z" fill="#004785"/>
<path d="M136.794 32.7448L136.677 32.8551C135.796 33.6714 134.635 34.1194 133.433 34.1071C132.22 34.1071 131.727 34.0617 131.727 34.0617V25.3038C131.727 24.5318 131.727 23.2149 132.408 22.9943L132.661 22.9229V22.6245H128.464V22.91L128.724 22.9813C129.269 23.2084 129.256 24.5318 129.249 25.2908V33.4649C129.249 34.2174 129.249 35.5214 128.73 35.7289L128.464 35.8327V36.1052H135.97L137.17 32.7318L136.794 32.7448Z" fill="#004785"/>
<path d="M66.7567 41.5027V40.789C66.6269 40.789 60.0747 41.2367 56.8375 41.2367C52.5948 41.2367 46.5032 41.1718 46.5032 41.1718L18.3351 40.8928C18.3351 40.828 18.3351 40.3739 18.3351 40.3025L46.4578 40.2117C46.4578 40.2117 52.5753 40.283 56.8375 40.283C60.0812 40.283 66.5685 40.283 66.7177 40.283C66.7177 39.9262 66.6658 39.4462 66.6269 39.0958C66.4972 39.0958 59.9968 39.6148 56.8375 39.6148C52.5948 39.6148 46.5032 39.3424 46.5032 39.3424H39.2828L29.7464 39.0634L18.4714 38.9596C18.4714 38.8688 18.5427 38.4147 18.5557 38.3109C19.2533 38.4545 19.9651 38.5176 20.6771 38.499C21.5873 38.5398 22.4964 38.3964 23.3498 38.0773C24.3583 38.3381 25.3963 38.4668 26.4378 38.4601C27.2747 38.4601 29.0847 37.6038 30.2135 37.9476C32.0169 38.486 32.7305 37.6751 32.7305 37.6751C33.0339 38.0363 33.4497 38.2852 33.9112 38.3822C34.3806 38.43 34.853 38.3278 35.2606 38.0903C35.2606 38.0903 36.2791 38.8299 39.1919 38.8169C42.7665 38.8169 43.7331 36.9356 43.7331 36.9356H43.8628C43.7906 37.2539 43.8178 37.5868 43.9407 37.8892C44.1036 38.1464 44.3235 38.3626 44.5833 38.5212C44.8432 38.6798 45.136 38.7766 45.4392 38.8039C45.3424 37.5055 45.6386 36.208 46.2891 35.0802H46.4188L46.3021 35.5602C46.0744 36.5953 46.1789 37.6759 46.6005 38.6482L46.9378 38.4796C46.7373 37.6744 46.7373 36.8324 46.9378 36.0273C47.095 35.2758 47.3686 34.5535 47.7487 33.8865H47.9174C47.72 34.5179 47.6045 35.1719 47.5736 35.8327C47.5736 36.5593 47.9693 38.2395 49.3511 38.739C49.6632 38.8434 49.999 38.8541 50.3172 38.77C50.6353 38.6858 50.9219 38.5105 51.1416 38.2655C52.487 38.5962 53.8633 38.7854 55.2481 38.8299C59.6206 38.8299 60.6002 38.0968 60.6002 38.0968C60.6002 38.0968 60.8921 38.6223 63.1302 38.6223C64.1139 38.6335 65.0975 38.5859 66.0755 38.4796L66.5231 38.4147C66.4777 38.0449 66.4193 37.6686 66.3544 37.3053C65.7474 33.9819 64.487 30.8119 62.6462 27.979C60.8055 25.1461 58.421 22.7065 55.6309 20.8015L55.3065 21.6968C58.0327 23.4815 60.3698 25.7993 62.177 28.5106C63.9842 31.222 65.2242 34.2709 65.8225 37.474C64.9728 37.7768 64.0777 37.9325 63.1756 37.9346C61.4565 37.9346 61.0413 37.3897 61.0413 37.3897C60.5035 37.7044 59.8864 37.8576 59.2638 37.8308C58.6143 37.7933 57.9948 37.545 57.4992 37.1237C56.7128 37.7572 55.7324 38.1008 54.7226 38.0968C54 38.1121 53.2855 37.9411 52.6481 37.6002C52.0107 37.2593 51.4718 36.7601 51.0832 36.1506C50.8623 35.7987 50.6651 35.4324 50.4929 35.0542H50.3177C50.3643 35.3368 50.4359 35.6147 50.5318 35.8846C50.6848 36.319 50.8781 36.7382 51.1092 37.1367C51.1676 37.247 51.3103 37.5519 51.0054 37.6427C50.9329 37.659 50.857 37.6514 50.7892 37.621C50.7213 37.5906 50.6652 37.539 50.6291 37.474C50.2899 36.9899 50.0334 36.4528 49.8701 35.8846C49.6642 35.2243 49.5315 34.5434 49.4744 33.8541H49.3381C49.2452 34.4984 49.2213 35.1509 49.2668 35.8003C49.2996 36.3876 49.4266 36.9659 49.643 37.5129C49.6767 37.5767 49.7029 37.6442 49.7209 37.714C49.7311 37.7699 49.7268 37.8274 49.7084 37.8811C49.69 37.9348 49.6581 37.9828 49.6158 38.0206C49.5734 38.0584 49.522 38.0847 49.4666 38.0969C49.4112 38.1091 49.3535 38.1068 49.2992 38.0903C49.0915 38.0158 48.9198 37.865 48.8192 37.6686C47.8915 36.1052 49.0203 33.1275 49.3771 32.1349C49.6803 31.2829 49.8976 30.4028 50.0258 29.5076C50.0258 29.5076 50.6745 28.4826 50.9924 27.7949C51.2676 27.0959 51.6086 26.4247 52.0109 25.7903C52.712 24.936 53.3169 24.007 53.8144 23.0202C53.9506 22.7737 54.554 21.4438 54.6707 21.1129C54.7875 20.7821 54.8783 20.6134 54.9497 20.3539C55.2053 19.4317 55.3982 18.4932 55.5271 17.5449C55.5271 17.24 54.9821 17.0194 54.9821 17.0194C54.7244 16.9194 54.4533 16.8582 54.1777 16.8378C53.948 16.8988 53.7291 16.9951 53.529 17.1232C53.2565 17.2465 53.1203 17.1686 53.1203 17.1686C52.9155 17.081 52.6941 17.039 52.4715 17.0454C52.2834 17.0843 52.0628 17.3243 51.8942 17.3957C51.5892 17.5254 51.5114 17.4606 51.5114 17.4606C51.3134 17.4108 51.1061 17.4108 50.9081 17.4606C50.5973 17.5739 50.311 17.7457 50.0647 17.9666C46.2468 16.5655 42.1491 16.0984 38.1139 16.6041C34.0786 17.1099 30.2229 18.5739 26.8689 20.8738C23.5149 23.1737 20.7599 26.2429 18.8341 29.8248C16.9082 33.4067 15.8674 37.3975 15.7986 41.4637C15.7986 41.5935 15.7986 42.1644 15.7986 42.1644H66.7567V41.5027ZM34.2421 36.3582C34.1707 36.3128 34.2421 36.2739 34.1578 36.2349C34.8065 34.0033 36.4608 29.4492 39.1011 25.9201L39.8731 26.3547C37.5051 29.3879 35.6068 32.7602 34.2421 36.3582ZM35.8574 37.1107C36.7817 33.4052 38.3519 29.8915 40.4959 26.731L41.2873 27.224C39.0306 30.2594 37.2418 33.6161 35.9807 37.1821C35.9093 37.1821 35.9093 37.1432 35.8574 37.1107ZM37.8036 37.6362H37.6739C38.4994 34.0881 39.9114 30.7028 41.8517 27.6197C42.1177 27.7949 42.3707 27.9636 42.5978 28.1258C40.7943 30.7661 38.7184 34.5352 37.8555 37.6362H37.8036ZM39.7498 37.5713C39.659 37.5713 39.6915 37.5713 39.6006 37.5713C40.3211 34.382 41.5197 31.32 43.1557 28.489C43.4736 28.7226 43.7201 28.9172 43.9082 29.0664C42.1618 31.703 40.7804 34.564 39.8017 37.5713H39.7498ZM46.4318 30.792C46.1631 30.8009 45.8956 30.7522 45.6472 30.6492C45.3989 30.5463 45.1753 30.3915 44.9916 30.1952C45.0836 30.5681 45.2951 30.9006 45.5938 31.1419C45.8925 31.3832 46.262 31.5201 46.6459 31.5316V31.5835C46.4792 31.6308 46.3067 31.6548 46.1334 31.6549C45.6785 31.6549 45.2418 31.476 44.9177 31.1567C44.5936 30.8375 44.4081 30.4036 44.4013 29.9487C44.4062 29.8133 44.4236 29.6787 44.4532 29.5465C45.1473 30.1109 46.7302 30.9218 47.5866 29.7411V29.8189C47.5172 30.0731 47.3742 30.301 47.1757 30.4741C46.9772 30.6473 46.7319 30.7579 46.4707 30.792H46.4318ZM49.2798 26.8607C49.2678 26.9742 49.2262 27.0826 49.1589 27.1749C49.0917 27.2671 49.0014 27.34 48.897 27.3862C48.7261 27.4694 48.5738 27.5864 48.4494 27.73C48.4494 27.7754 48.3845 27.73 48.3586 27.73C48.3326 27.73 48.2288 27.6522 48.1704 27.6068C48.1684 27.5895 48.1684 27.5721 48.1704 27.5549C48.1646 27.5183 48.1646 27.4811 48.1704 27.4446V27.3278C48.177 27.2674 48.177 27.2065 48.1704 27.1462C48.1471 26.9957 48.1471 26.8425 48.1704 26.692C48.2223 26.5074 48.3313 26.3439 48.4818 26.225L48.5986 26.2639C48.5091 26.3734 48.437 26.4959 48.3845 26.6272C48.3265 26.8219 48.3265 27.0293 48.3845 27.224C48.3905 27.2757 48.3905 27.328 48.3845 27.3797L48.4494 27.4381C48.488 27.4148 48.5248 27.3888 48.5597 27.3602L48.7802 27.1851C48.7152 27.1436 48.6671 27.0804 48.6446 27.0067C48.622 26.933 48.6264 26.8536 48.657 26.7829C48.6915 26.717 48.7481 26.6653 48.8169 26.6369C48.8857 26.6084 48.9622 26.605 49.0332 26.6272C49.0801 26.4451 49.0933 26.2561 49.0722 26.0693L49.2343 26.1276C49.3146 26.3632 49.3433 26.6131 49.3187 26.8607H49.2798ZM50.5772 18.2585C50.8011 18.1082 51.0403 17.982 51.2908 17.8822C51.5406 17.85 51.7936 17.85 52.0434 17.8822C52.2315 17.8822 52.5883 17.5708 52.757 17.5838C52.927 17.594 53.0929 17.6404 53.2435 17.72C53.3862 17.7979 53.9442 17.4151 54.1063 17.4216C54.2685 17.4281 54.5799 17.4216 54.4956 17.8303C54.3161 18.6496 54.0688 19.4525 53.756 20.2307C53.6198 20.5875 53.4576 20.9637 53.263 21.353C53.0428 21.7987 52.7981 22.2318 52.5299 22.6504C51.3687 24.4669 50.3502 24.0582 48.1574 25.0702C47.1871 25.459 46.2848 25.9999 45.4847 26.6726L45.063 26.4066C45.8288 25.7762 46.678 25.2544 47.5866 24.8561C49.1241 24.0647 51.6541 22.9748 52.1861 22.1185C52.225 22.0471 52.1861 22.0017 52.1472 21.9498C51.7151 22.2373 51.2667 22.4994 50.8043 22.7348C48.3002 24.0193 47.4503 24.3307 46.354 24.8561C45.7175 25.1934 45.1041 25.5726 44.518 25.9914L44.0899 25.6995C44.6939 25.2201 45.3462 24.8049 46.0361 24.4604C47.1389 23.909 48.0861 23.4419 50.7394 21.8979C50.9794 21.7617 52.3029 20.9443 53.3343 20.2112C53.3343 20.1269 53.3798 20.036 53.3927 19.9582C52.4845 20.4837 49.5003 22.0601 48.9229 22.3715C46.4448 23.6235 46.5551 23.5392 45.4522 24.0906C44.7961 24.4359 44.1671 24.8306 43.5709 25.2713C43.4217 25.161 43.2854 25.0507 43.1622 24.947C43.7901 24.5121 44.4397 24.1094 45.1084 23.7403C46.2177 23.15 46.354 23.0397 48.8386 21.7941C50.0972 21.1454 52.3223 19.6792 53.4771 18.9332C53.4771 18.8359 53.4771 18.8034 53.516 18.7191C52.2834 19.4003 48.7673 21.2362 48.1834 21.5281C45.7052 22.7867 45.4198 22.884 44.291 23.4419C43.7031 23.7395 43.1392 24.0822 42.6043 24.4669L42.2799 24.2074C42.9371 23.7146 43.6262 23.2659 44.3429 22.8645C45.4263 22.2482 45.6404 22.1704 48.1185 20.9183C48.3326 20.808 49.5263 20.1528 50.7135 19.4262L51.7385 18.7775C51.959 18.6413 52.1731 18.4272 52.3872 18.3169L52.2639 18.2585C51.7729 18.4643 51.2943 18.6982 50.8302 18.9591C49.5328 19.7052 47.8655 20.4382 47.366 20.6913C44.8878 21.9433 44.6089 22.0471 43.506 22.5985C42.8919 22.9219 42.3041 23.2928 41.7479 23.7079C41.6312 23.5997 41.5274 23.4959 41.4366 23.3965C42.0743 22.8751 42.7685 22.4269 43.506 22.0601C44.6024 21.5087 44.8424 21.4113 47.3206 20.1139C47.7747 19.8868 48.1574 19.6727 48.4753 19.4651C49.2215 19.1156 49.9413 18.7123 50.6291 18.2585H50.5772ZM42.2669 17.6098C44.5899 17.6091 46.9003 17.9501 49.1241 18.6218C48.5637 19.0044 47.9809 19.3532 47.379 19.6663C44.5764 21.0805 44.2067 21.1973 42.9676 21.8201C42.2965 22.1535 41.658 22.5488 41.0603 23.0007C40.8065 22.6657 40.5172 22.359 40.1975 22.086C39.8105 21.8834 39.4041 21.7204 38.9843 21.5995C38.6372 21.3482 38.2574 21.1452 37.8555 20.9962C37.4483 20.9072 37.0332 20.8594 36.6165 20.8534C36.2575 20.7321 35.8793 20.6771 35.5006 20.6913C35.2347 20.6913 34.8519 20.9053 34.534 20.9248C34.2161 20.9443 33.775 20.808 33.4961 20.8599C33.2171 20.9118 32.8473 21.2232 32.3608 21.314C32.0429 21.3724 31.712 21.314 31.4461 21.3595C31.1801 21.4049 30.7195 21.8395 30.4794 21.9303C30.2394 22.0212 29.6945 22.0601 29.7334 22.5337C29.7723 23.0072 30.6935 23.0462 30.6935 23.0462C33.402 23.4887 36.0272 24.3419 38.4783 25.5762C37.9012 26.2913 37.3745 27.0457 36.9019 27.8338C36.5784 27.7246 36.2464 27.6421 35.9093 27.5873C35.5432 27.6135 35.1792 27.6634 34.8195 27.7365C34.3921 27.6521 33.9537 27.6389 33.522 27.6976C33.1928 27.7875 32.8717 27.9047 32.5619 28.0479C32.1809 28.0561 31.8013 28.0952 31.4266 28.1647C31.1801 28.2425 30.7779 28.6707 30.5248 28.8134C30.2156 28.8755 29.9165 28.9803 29.6361 29.1248C29.409 29.2935 29.422 29.5076 28.9874 29.7735C28.7019 29.9487 28.4748 29.8903 28.1699 30.1887C27.9769 30.4896 27.7433 30.7625 27.4758 30.9996C26.8271 31.5057 26.9179 31.9079 26.9763 32.0571C27.1514 32.4982 28.144 32.0571 28.144 32.0571C30.4606 31.3343 32.8573 30.8985 35.2801 30.7596C34.2875 32.7966 33.4052 34.7623 32.9381 36.0338L32.6657 36.8383C32.5878 36.8383 32.6073 36.8383 32.5878 36.8383C32.3413 36.6826 32.3413 36.3258 32.4775 35.6381C32.7035 34.7944 32.9964 33.9701 33.3533 33.1729H33.1328C32.9317 33.5167 32.3673 34.5547 32.231 34.8466C32.0494 35.2359 31.978 35.3462 31.5369 36.2609C31.4655 36.4166 31.1995 36.8642 30.979 36.8577C30.7584 36.8512 30.6092 36.728 30.6092 36.5593C30.6415 36.4384 30.699 36.3256 30.7779 36.2284C31.1921 35.6105 31.5236 34.9409 31.7639 34.2368H31.5434C31.5434 34.2368 30.0707 37.5065 27.0606 37.5065C26.3288 37.4766 25.6092 37.3094 24.9392 37.0134C23.8585 37.4466 22.7042 37.6669 21.5399 37.6621C20.5808 37.687 19.625 37.5398 18.7179 37.2275C19.7099 31.701 22.6216 26.7023 26.9395 23.1132C31.2574 19.524 36.7041 17.5749 42.3188 17.6098H42.2669Z" fill="#0082C4"/>
</svg>
