<svg width="123" height="25" viewBox="0 0 123 25" fill="none" xmlns="http://www.w3.org/2000/svg">
<path d="M62.7624 18.0997L62.6534 18.0344C62.1085 17.7455 61.8959 16.9445 61.6562 16.3069L58.8824 8.87927H56.234V9.11905L56.3865 9.17354C56.4553 9.19447 56.5212 9.22375 56.5827 9.26073C56.7353 9.36972 56.8498 9.53866 56.6754 10.0182C56.6045 10.2253 56.5446 10.3833 56.5446 10.3833C56.5446 10.3833 54.3648 16.296 54.3648 16.3014C54.1359 16.9554 53.9343 17.751 53.3948 18.0398L53.215 18.1106V18.345H56.1849V18.1106L55.9724 18.0235C55.7108 17.9199 55.64 17.6638 55.9233 16.8627L56.2612 15.7728H59.4219C59.5036 15.9908 59.6017 16.3178 59.7543 16.7646C59.9069 17.2115 60.1249 17.8545 59.8034 18.018L59.6126 18.0943V18.3286H62.7951L62.7624 18.0997ZM58.9042 14.2851H56.7789L57.8252 11.3642L58.9042 14.2851Z" fill="white"/>
<path d="M82.0807 8.87927V9.1136L82.2987 9.20079C82.642 9.34248 82.6365 10.2198 82.6256 10.743V16.4704C82.6256 16.9445 82.6256 17.8927 82.3041 18.0235L82.0807 18.1052V18.3395H85.1269V18.1106L84.909 18.0235C84.5656 17.8818 84.5765 16.9336 84.582 16.4704V10.7593C84.582 9.96371 84.6801 9.28798 84.909 9.18989L85.1269 9.1027V8.87927H82.0807Z" fill="white"/>
<path d="M70.7077 8.87927V9.1136L70.9257 9.20079C71.269 9.34248 71.2581 10.2198 71.2526 10.743V16.4704C71.2526 16.9445 71.2527 17.8927 70.9257 18.0235L70.7077 18.1052V18.3395H73.7485V18.1106L73.5305 18.0235C73.1872 17.8818 73.1927 16.9336 73.1981 16.4704V10.7593C73.1981 9.96371 73.3016 9.28798 73.5305 9.18989L73.7485 9.1027V8.87927H70.7077Z" fill="white"/>
<path d="M104.086 10.7321C104.086 10.1871 104.086 9.33158 103.759 9.18989L103.541 9.1027V8.87927H106.587V9.1136L106.369 9.20079C106.14 9.29888 106.026 9.97461 106.042 10.7702V16.4704C106.042 16.9445 106.042 17.8818 106.369 18.0235L106.587 18.1106V18.3395H103.541V18.1052L103.764 18.0235C104.102 17.8927 104.091 16.9336 104.086 16.4704V10.7321Z" fill="white"/>
<path d="M53.7599 8.07272C52.9739 7.33976 51.9295 6.9479 50.8554 6.98283H46.9699V7.24441L47.1661 7.3098C47.662 7.53868 47.6402 8.78115 47.6402 9.67486V15.9036C47.6402 16.5739 47.6402 17.8109 47.1661 18.0125L46.9536 18.1052V18.3395H50.5175V18.1052L50.3649 18.0289C49.7273 17.6093 49.7273 16.6938 49.7273 15.7455V13.751L50.1088 13.8873C50.476 14.0136 50.8597 14.0852 51.2477 14.0998C52.8825 14.0998 54.6918 12.9609 54.6918 10.4705C54.7048 10.0288 54.629 9.589 54.4689 9.17714C54.3088 8.76527 54.0677 8.38972 53.7599 8.07272ZM50.2341 13.1843L49.918 13.2116H49.7273V8.96643C50.0133 8.93558 50.3007 8.92102 50.5883 8.92284C51.183 8.88801 51.7683 9.08311 52.2232 9.46778C52.3836 9.64482 52.5068 9.85232 52.5855 10.0779C52.6641 10.3036 52.6966 10.5427 52.6809 10.7811C52.651 11.4163 52.3823 12.0168 51.9286 12.4623C51.4749 12.9079 50.8697 13.1658 50.2341 13.1843Z" fill="white"/>
<path d="M69.7377 15.7837L69.6778 15.8328C69.6134 15.8822 69.546 15.9276 69.4762 15.969C68.7667 16.4476 67.9388 16.721 67.0839 16.7592C66.7495 16.7711 66.4163 16.7149 66.1043 16.594C65.7924 16.4732 65.5082 16.2902 65.2692 16.0562C64.6279 15.3236 64.2993 14.3689 64.3537 13.3969C64.3537 11.6639 65.3782 10.4596 66.8386 10.4596C67.5755 10.4755 68.2893 10.7192 68.8822 11.1571L69.0729 11.2879L69.4271 11.5386V9.06999L69.171 8.99914C68.424 8.78737 67.653 8.67199 66.8768 8.65583C66.2833 8.64243 65.6931 8.74785 65.1409 8.96591C64.5888 9.18396 64.0858 9.51024 63.6616 9.92555C62.7431 10.9211 62.2554 12.2394 62.3047 13.593C62.276 14.2554 62.3792 14.9169 62.6084 15.539C62.8376 16.1611 63.1882 16.7315 63.6398 17.2169C64.1263 17.6706 64.6982 18.0227 65.3223 18.2529C65.9464 18.4831 66.6101 18.5866 67.2746 18.5575C67.9635 18.5727 68.6458 18.4213 69.2636 18.1161H69.3018L69.3781 18.0779L69.4108 17.9962L70.0538 15.8164L69.7377 15.7837Z" fill="white"/>
<path d="M93.0832 15.7837L92.8216 15.9635C92.1121 16.4421 91.2843 16.7156 90.4293 16.7537C90.095 16.7656 89.7617 16.7094 89.4498 16.5886C89.1378 16.4677 88.8537 16.2848 88.6146 16.0507C87.9734 15.3181 87.6448 14.3635 87.6991 13.3914C87.6991 11.6585 88.7236 10.4541 90.1841 10.4541C90.9209 10.4701 91.6348 10.7138 92.2276 11.1517L92.7726 11.5331V9.06999L92.5164 8.99914C91.7695 8.78701 90.9985 8.67163 90.2222 8.65583C89.6287 8.64243 89.0385 8.74785 88.4864 8.96591C87.9342 9.18396 87.4313 9.51024 87.0071 9.92555C86.0807 10.9177 85.585 12.2363 85.6283 13.593C85.5996 14.2554 85.7029 14.9169 85.9321 15.539C86.1613 16.1611 86.5119 16.7315 86.9635 17.2169C87.4499 17.6706 88.0219 18.0227 88.646 18.2529C89.27 18.4831 89.9337 18.5866 90.5982 18.5575C91.2871 18.5727 91.9695 18.4213 92.5873 18.1161L92.7017 18.0616L93.3666 15.7837H93.0832Z" fill="white"/>
<path d="M80.4786 8.87931H74.9365V9.11364L75.1544 9.20083C75.4978 9.34251 75.4869 10.2199 75.4814 10.7485V16.4704C75.4814 16.9445 75.4814 17.8927 75.1544 18.0235L74.9365 18.1052V18.3396H77.9773V18.1107L77.7647 18.0235C77.4214 17.8818 77.4269 16.9336 77.4323 16.4704V14.574H79.1271C79.1271 14.574 79.8573 14.514 79.9663 14.8192L80.0154 14.95L80.217 14.9881L80.3478 12.4596H80.0971L80.0481 12.6176C79.9827 12.8247 79.3178 12.8738 79.1271 12.8629H77.4323C77.4323 12.04 77.4323 10.9828 77.4323 10.5359H79.6775C80.1789 10.5359 80.4459 10.6504 80.5385 10.9174L80.5876 11.07H80.8328L81.3777 8.81937C81.3777 8.81937 80.6475 8.87931 80.4786 8.87931Z" fill="white"/>
<path d="M113.235 8.87929H107.693V9.11362L107.911 9.20081C108.26 9.34249 108.249 10.2199 108.244 10.7485V16.4704C108.244 16.9445 108.244 17.8927 107.917 18.0235L107.693 18.1052V18.3395H110.739V18.1107L110.527 18.0235C110.184 17.8818 110.189 16.9336 110.194 16.4704V14.574H111.895C111.895 14.574 112.619 14.514 112.734 14.8192L112.783 14.95L112.985 14.9881L113.115 12.4596H112.865L112.816 12.6176C112.745 12.8247 112.085 12.8737 111.895 12.8628H110.2V10.5141H112.44C112.941 10.5141 113.208 10.6286 113.301 10.8956L113.35 11.0482H113.579L114.123 8.79755C114.123 8.79755 113.41 8.87929 113.235 8.87929Z" fill="white"/>
<path d="M121.039 16.029C120.314 16.5367 119.443 16.7932 118.559 16.7592C118.092 16.7777 117.625 16.7337 117.17 16.6284V14.2089H118.554C118.554 14.2089 119.29 14.2089 119.393 14.4541L119.442 14.5849L119.66 14.6285L119.78 12.2961H119.524L119.475 12.4541C119.409 12.6612 118.783 12.6939 118.592 12.6885H117.164V10.5141H118.979C119.48 10.5141 119.944 10.5141 120.069 10.8956L120.123 11.0482H120.358L120.794 8.79755C120.794 8.79755 120.069 8.85204 119.9 8.85204H114.668V9.08637L114.886 9.17356C115.235 9.31525 115.224 10.1926 115.219 10.7212V16.4704C115.219 16.9172 115.219 17.8327 114.941 18.018C114.854 18.0573 114.762 18.0865 114.668 18.1052V18.3395H120.723L121.3 16.029H121.039Z" fill="white"/>
<path d="M102.909 15.5058L102.81 15.5985C102.07 16.2842 101.095 16.6605 100.086 16.6502C99.0667 16.6502 98.6525 16.6121 98.6525 16.6121V9.25529C98.6525 8.60681 98.6525 7.50057 99.2247 7.31529L99.4372 7.25534V7.00467H95.9114V7.24445L96.1294 7.30439C96.5872 7.49512 96.5763 8.60681 96.5708 9.24439V16.1107C96.5708 16.7428 96.5708 17.8382 96.1349 18.0126L95.9114 18.0998V18.3286H102.216L103.225 15.4949L102.909 15.5058Z" fill="white"/>
<path d="M44.0762 22.8626V22.2631C43.9673 22.2631 38.4633 22.6391 35.744 22.6391C32.1801 22.6391 27.0631 22.5846 27.0631 22.5846L3.40155 22.3503C3.40155 22.2958 3.40155 21.9143 3.40155 21.8544L27.0249 21.7781C27.0249 21.7781 32.1637 21.8381 35.744 21.8381C38.4688 21.8381 43.9182 21.8381 44.0435 21.8381C44.0435 21.5383 44 21.1351 43.9673 20.8408C43.8583 20.8408 38.3979 21.2768 35.744 21.2768C32.1801 21.2768 27.0631 21.0479 27.0631 21.0479H20.9978L12.9871 20.8136L3.51599 20.7264C3.51599 20.6501 3.57593 20.2686 3.58683 20.1814C4.17283 20.302 4.77072 20.3551 5.3688 20.3395C6.13341 20.3738 6.89706 20.2533 7.61397 19.9852C8.46105 20.2043 9.33299 20.3124 10.2079 20.3068C10.9109 20.3068 12.4313 19.5874 13.3795 19.8763C14.8944 20.3286 15.4939 19.6474 15.4939 19.6474C15.7487 19.9507 16.0979 20.1599 16.4857 20.2414C16.8799 20.2815 17.2768 20.1956 17.6192 19.9961C17.6192 19.9961 18.4747 20.6174 20.9215 20.6065C23.9242 20.6065 24.7361 19.0261 24.7361 19.0261H24.8451C24.7845 19.2936 24.8073 19.5732 24.9105 19.8272C25.0474 20.0432 25.2321 20.2249 25.4504 20.3581C25.6687 20.4914 25.9147 20.5726 26.1694 20.5956C26.088 19.5049 26.3368 18.415 26.8832 17.4676H26.9922L26.8941 17.8709C26.7029 18.7404 26.7906 19.648 27.1448 20.4648L27.4282 20.3231C27.2597 19.6468 27.2597 18.9395 27.4282 18.2632C27.5602 17.632 27.79 17.0252 28.1094 16.4649H28.251C28.0852 16.9952 27.9882 17.5447 27.9622 18.0997C27.9622 18.7101 28.2946 20.1215 29.4554 20.5411C29.7175 20.6287 29.9996 20.6378 30.2669 20.5671C30.5341 20.4964 30.7749 20.3491 30.9594 20.1433C32.0896 20.4211 33.2457 20.58 34.4089 20.6174C38.0819 20.6174 38.9047 20.0016 38.9047 20.0016C38.9047 20.0016 39.1499 20.443 41.03 20.443C41.8563 20.4524 42.6825 20.4124 43.5041 20.3231L43.8801 20.2686C43.8419 19.958 43.7929 19.6419 43.7384 19.3368C43.2284 16.545 42.1697 13.8822 40.6234 11.5025C39.0772 9.12282 37.0742 7.07354 34.7304 5.47335L34.458 6.22537C36.748 7.72455 38.7112 9.6715 40.2293 11.9491C41.7473 14.2267 42.789 16.7878 43.2915 19.4784C42.5778 19.7328 41.8259 19.8636 41.0681 19.8654C39.624 19.8654 39.2753 19.4076 39.2753 19.4076C38.8235 19.672 38.3051 19.8006 37.7821 19.7782C37.2366 19.7466 36.7162 19.5381 36.2999 19.1842C35.6393 19.7163 34.8158 20.0049 33.9675 20.0016C33.3605 20.0144 32.7603 19.8708 32.2249 19.5845C31.6895 19.2981 31.2368 18.8788 30.9104 18.3668C30.7248 18.0711 30.5591 17.7635 30.4145 17.4458H30.2673C30.3064 17.6832 30.3666 17.9166 30.4472 18.1433C30.5757 18.5083 30.7381 18.8604 30.9322 19.1951C30.9812 19.2877 31.1011 19.5438 30.845 19.6201C30.7841 19.6339 30.7203 19.6275 30.6634 19.6019C30.6064 19.5764 30.5592 19.5331 30.5289 19.4784C30.2439 19.0718 30.0285 18.6206 29.8913 18.1433C29.7184 17.5887 29.6069 17.0167 29.5589 16.4376H29.4445C29.3664 16.9789 29.3463 17.527 29.3845 18.0725C29.4121 18.5659 29.5188 19.0516 29.7006 19.5111C29.7289 19.5647 29.7508 19.6214 29.766 19.6801C29.7746 19.727 29.771 19.7753 29.7555 19.8204C29.7401 19.8655 29.7132 19.9059 29.6777 19.9376C29.6421 19.9694 29.5989 19.9914 29.5524 20.0017C29.5058 20.0119 29.4574 20.01 29.4118 19.9961C29.2373 19.9335 29.0931 19.8069 29.0085 19.6419C28.2292 18.3286 29.1775 15.8273 29.4772 14.9935C29.7319 14.2779 29.9144 13.5385 30.0221 12.7865C30.0221 12.7865 30.5671 11.9255 30.8341 11.3479C31.0652 10.7607 31.3517 10.1969 31.6896 9.66398C32.2786 8.94636 32.7866 8.16601 33.2046 7.33706C33.319 7.12998 33.8258 6.01284 33.9239 5.73492C34.022 5.457 34.0983 5.31531 34.1582 5.09734C34.373 4.32265 34.535 3.53431 34.6432 2.73772C34.6432 2.4816 34.1855 2.29632 34.1855 2.29632C33.969 2.21234 33.7413 2.16091 33.5098 2.14373C33.3168 2.19498 33.133 2.27587 32.9648 2.38351C32.7359 2.48705 32.6215 2.42166 32.6215 2.42166C32.4495 2.34808 32.2636 2.31275 32.0766 2.31812C31.9185 2.35081 31.7332 2.55244 31.5916 2.61239C31.3354 2.72138 31.27 2.66688 31.27 2.66688C31.1037 2.62513 30.9296 2.62513 30.7632 2.66688C30.5022 2.76211 30.2617 2.90639 30.0548 3.09194C26.8477 1.91504 23.4056 1.52262 20.0159 1.94747C16.6263 2.37231 13.3875 3.60208 10.57 5.53406C7.75262 7.46603 5.43839 10.0441 3.82065 13.053C2.20291 16.0619 1.32862 19.4142 1.27081 22.8299C1.27081 22.9388 1.27081 23.4184 1.27081 23.4184H44.0762V22.8626ZM16.7636 18.5411C16.7037 18.503 16.7636 18.4703 16.6928 18.4376C17.2377 16.563 18.6273 12.7375 20.8452 9.77297L21.4937 10.1381C19.5045 12.686 17.91 15.5188 16.7636 18.5411ZM18.1205 19.1733C18.8969 16.0605 20.2159 13.109 22.0169 10.4541L22.6817 10.8683C20.786 13.4181 19.2834 16.2377 18.2241 19.2332C18.1641 19.2332 18.1641 19.2005 18.1205 19.1733ZM19.7553 19.6147H19.6464C20.3398 16.6343 21.5259 13.7905 23.1558 11.2007C23.3792 11.3479 23.5918 11.4895 23.7825 11.6258C22.2675 13.8437 20.5237 17.0098 19.7989 19.6147H19.7553ZM21.3902 19.5602C21.3139 19.5602 21.3411 19.5602 21.2648 19.5602C21.8701 16.8811 22.8769 14.309 24.2511 11.931C24.5182 12.1271 24.7253 12.2906 24.8833 12.416C23.4162 14.6307 22.2559 17.034 21.4338 19.5602H21.3902ZM27.0031 13.8655C26.7774 13.8729 26.5527 13.832 26.3441 13.7455C26.1354 13.6591 25.9477 13.5291 25.7933 13.3642C25.8706 13.6774 26.0482 13.9567 26.2992 14.1594C26.5501 14.3621 26.8605 14.4771 27.183 14.4867V14.5303C27.0429 14.5701 26.898 14.5902 26.7524 14.5903C26.3703 14.5903 26.0035 14.44 25.7312 14.1719C25.459 13.9037 25.3032 13.5392 25.2974 13.1571C25.3016 13.0434 25.3162 12.9303 25.341 12.8192C25.9241 13.2933 27.2538 13.9745 27.9731 12.9827V13.0481C27.9148 13.2615 27.7948 13.453 27.628 13.5985C27.4612 13.7439 27.2552 13.8368 27.0358 13.8655H27.0031ZM29.3954 10.5631C29.3854 10.6585 29.3504 10.7495 29.2939 10.827C29.2375 10.9045 29.1616 10.9658 29.0739 11.0045C28.9304 11.0744 28.8025 11.1727 28.6979 11.2934C28.6979 11.3315 28.6434 11.2934 28.6216 11.2934C28.5998 11.2934 28.5126 11.228 28.4636 11.1898C28.4619 11.1753 28.4619 11.1607 28.4636 11.1462C28.4587 11.1155 28.4587 11.0843 28.4636 11.0536V10.9555C28.4691 10.9048 28.4691 10.8536 28.4636 10.8029C28.444 10.6765 28.444 10.5479 28.4636 10.4215C28.5071 10.2663 28.5987 10.129 28.7251 10.0291L28.8232 10.0618C28.7481 10.1538 28.6875 10.2567 28.6434 10.367C28.5946 10.5305 28.5946 10.7047 28.6434 10.8683C28.6484 10.9118 28.6484 10.9556 28.6434 10.9991L28.6979 11.0481C28.7303 11.0286 28.7613 11.0067 28.7905 10.9827L28.9758 10.8356C28.9212 10.8008 28.8808 10.7477 28.8619 10.6857C28.8429 10.6238 28.8466 10.5572 28.8723 10.4977C28.9013 10.4424 28.9489 10.399 29.0066 10.3751C29.0644 10.3512 29.1287 10.3483 29.1884 10.367C29.2277 10.214 29.2388 10.0552 29.221 9.8983L29.3573 9.94735C29.4247 10.1452 29.4488 10.3552 29.4281 10.5631H29.3954ZM30.4853 3.33716C30.6734 3.21088 30.8743 3.10493 31.0848 3.0211C31.2946 2.99401 31.5071 2.99401 31.7169 3.0211C31.8749 3.0211 32.1746 2.75952 32.3163 2.77042C32.4592 2.77897 32.5985 2.81799 32.725 2.88486C32.8449 2.95025 33.3136 2.62874 33.4498 2.63418C33.5861 2.63963 33.8476 2.63418 33.7768 2.9775C33.6261 3.66568 33.4183 4.34011 33.1556 4.9938C33.0411 5.29352 32.9049 5.60959 32.7414 5.93655C32.5564 6.31096 32.3509 6.67482 32.1256 7.02644C31.1502 8.55229 30.2946 8.20898 28.4527 9.05909C27.6375 9.38567 26.8797 9.84004 26.2075 10.4051L25.8533 10.1817C26.4966 9.65209 27.21 9.21381 27.9731 8.87926C29.2646 8.21442 31.3899 7.29892 31.8368 6.57959C31.8695 6.51964 31.8368 6.4815 31.8041 6.4379C31.4412 6.67937 31.0645 6.89954 30.676 7.09729C28.5726 8.17628 27.8587 8.43785 26.9377 8.87926C26.4031 9.16254 25.8878 9.48113 25.3955 9.83291L25.0359 9.58769C25.5433 9.18502 26.0912 8.8362 26.6707 8.54684C27.5971 8.08364 28.3927 7.69128 30.6216 6.39431C30.8232 6.27987 31.9349 5.59324 32.8013 4.97745C32.8013 4.90661 32.8395 4.83031 32.8504 4.76492C32.0875 5.20633 29.5807 6.53054 29.0957 6.79212C27.014 7.84386 27.1067 7.77302 26.1803 8.23622C25.6291 8.52626 25.1008 8.85782 24.5999 9.22802C24.4746 9.13538 24.3601 9.04274 24.2566 8.95555C24.7841 8.59029 25.3297 8.25199 25.8914 7.94195C26.8233 7.44605 26.9377 7.35341 29.0249 6.30712C30.0821 5.76217 31.9512 4.53059 32.9212 3.90391C32.9212 3.82217 32.9212 3.79492 32.9539 3.72408C31.9185 4.29627 28.9649 5.83846 28.4745 6.08369C26.3928 7.14088 26.153 7.22262 25.2048 7.69128C24.711 7.94127 24.2373 8.22914 23.7879 8.55229L23.5155 8.33431C24.0675 7.92033 24.6464 7.54349 25.2484 7.20628C26.1585 6.68858 26.3383 6.62318 28.42 5.57144C28.5998 5.4788 29.6025 4.9284 30.5998 4.31806L31.4608 3.77312C31.6461 3.65868 31.8259 3.47885 32.0057 3.38621L31.9022 3.33716C31.4897 3.51001 31.0876 3.70652 30.6978 3.9257C29.608 4.55239 28.2074 5.16818 27.7878 5.38071C25.7062 6.43245 25.4718 6.51964 24.5454 6.98285C24.0296 7.25446 23.5358 7.56603 23.0686 7.9147C22.9705 7.82388 22.8833 7.73669 22.807 7.65313C23.3428 7.21519 23.9259 6.83864 24.5454 6.53054C25.4664 6.06734 25.668 5.9856 27.7497 4.89571C28.1312 4.70498 28.4527 4.52514 28.7197 4.35076C29.3465 4.05711 29.9512 3.71836 30.5289 3.33716H30.4853ZM23.5046 2.79222C25.4559 2.79167 27.3967 3.07811 29.2646 3.64233C28.7939 3.96373 28.3044 4.25671 27.7987 4.51969C25.4446 5.70768 25.134 5.80577 24.0931 6.32891C23.5294 6.60902 22.993 6.94106 22.491 7.32071C22.2777 7.03924 22.0347 6.78163 21.7662 6.55234C21.4411 6.38214 21.0997 6.24521 20.7472 6.14363C20.4555 5.93251 20.1365 5.76202 19.7989 5.63683C19.4569 5.56214 19.1082 5.52198 18.7581 5.51694C18.4565 5.41499 18.1389 5.36883 17.8208 5.38071C17.5974 5.38071 17.2759 5.56054 17.0088 5.57689C16.7418 5.59324 16.3712 5.4788 16.1369 5.52239C15.9026 5.56599 15.592 5.82756 15.1833 5.90386C14.9162 5.9529 14.6383 5.90386 14.4149 5.942C14.1915 5.98015 13.8046 6.34526 13.6029 6.42155C13.4013 6.49785 12.9435 6.53054 12.9762 6.92835C13.0089 7.32616 13.7828 7.35886 13.7828 7.35886C16.0579 7.73058 18.2631 8.44726 20.3221 9.48415C19.8373 10.0849 19.3948 10.7185 18.9979 11.3806C18.7261 11.2888 18.4472 11.2195 18.1641 11.1735C17.8566 11.1955 17.5508 11.2374 17.2486 11.2988C16.8896 11.2279 16.5213 11.2169 16.1587 11.2661C15.8822 11.3417 15.6124 11.4401 15.3522 11.5604C15.0322 11.5673 14.7133 11.6001 14.3985 11.6585C14.1915 11.7239 13.8536 12.0835 13.6411 12.2034C13.3813 12.2556 13.13 12.3437 12.8945 12.465C12.7038 12.6067 12.7147 12.7865 12.3495 13.0099C12.1098 13.1571 11.919 13.108 11.6629 13.3587C11.5008 13.6115 11.3045 13.8407 11.0798 14.0399C10.5349 14.4649 10.6112 14.8028 10.6602 14.9281C10.8074 15.2987 11.6411 14.9281 11.6411 14.9281C13.5871 14.321 15.6003 13.955 17.6355 13.8383C16.8017 15.5494 16.0606 17.2006 15.6683 18.2687L15.4394 18.9444C15.374 18.9444 15.3903 18.9444 15.374 18.9444C15.1669 18.8136 15.1669 18.5139 15.2814 17.9362C15.4712 17.2275 15.7172 16.5351 16.017 15.8655H15.8317C15.6628 16.1543 15.1887 17.0262 15.0743 17.2714C14.9217 17.5984 14.8617 17.691 14.4912 18.4594C14.4312 18.5902 14.2078 18.9662 14.0225 18.9607C13.8372 18.9553 13.7119 18.8518 13.7119 18.7101C13.739 18.6085 13.7873 18.5138 13.8536 18.4321C14.2016 17.9131 14.4801 17.3506 14.6819 16.7592H14.4966C14.4966 16.7592 13.2596 19.5057 10.7311 19.5057C10.1164 19.4806 9.51185 19.3401 8.94909 19.0915C8.04125 19.4554 7.07163 19.6405 6.09358 19.6365C5.28794 19.6573 4.48509 19.5337 3.72307 19.2714C4.55636 14.629 7.00227 10.4301 10.6294 7.41514C14.2565 4.4002 18.8317 2.76297 23.5482 2.79222H23.5046Z" fill="white"/>
</svg>
