<svg width="22" height="20" viewBox="0 0 22 20" fill="none" xmlns="http://www.w3.org/2000/svg">
<path fill-rule="evenodd" clip-rule="evenodd" d="M5.44673 1.64604C6.14075 0.906562 7.10423 0.543457 8.03705 0.543457C8.954 0.543457 9.89033 0.908699 10.578 1.5964L10.7298 1.74822L10.8725 1.59987L10.876 1.5964C11.5851 0.887304 12.5025 0.543457 13.4169 0.543457C14.3339 0.543457 15.2702 0.908699 15.9579 1.5964C17.3509 2.9894 17.3605 5.27896 15.9551 6.64174L11.4451 11.1517C11.0528 11.5441 10.4012 11.5441 10.0089 11.1517L5.5552 6.69806C4.19183 5.33469 4.08835 3.07498 5.44673 1.64604ZM8.03705 1.54346C7.35452 1.54346 6.66326 1.81051 6.17499 2.33134L6.17244 2.33406C5.2068 3.3488 5.26133 4.98997 6.26231 5.99095L10.7152 10.4439C10.7154 10.4439 10.7156 10.444 10.7159 10.4442C10.7179 10.445 10.7218 10.446 10.727 10.446C10.7322 10.446 10.7361 10.445 10.7381 10.4442C10.7384 10.444 10.7386 10.4439 10.7388 10.4439L15.2537 5.92889L15.2567 5.92599C16.2523 4.96304 16.2609 3.31366 15.2508 2.30351C14.7561 1.80882 14.0765 1.54346 13.4169 1.54346C12.7563 1.54346 12.0986 1.78974 11.5864 2.3002L10.7438 3.17643L9.87092 2.30351C9.37624 1.80882 8.69663 1.54346 8.03705 1.54346Z" fill="#ADADAD"/>
<path fill-rule="evenodd" clip-rule="evenodd" d="M2.04543 6.79412C2.70706 6.67031 3.42978 7.01917 3.68573 7.82968L3.68682 7.83312L3.68786 7.83657C3.7856 8.1624 3.9965 8.67677 4.25613 9.241C4.36053 9.12349 4.47977 9.02752 4.60326 8.95293C5.07544 8.6603 5.85227 8.6176 6.30168 9.27442L6.30508 9.2794L6.30505 9.27942C6.56226 9.66523 6.90596 10.0592 7.27715 10.4847C7.38526 10.6086 7.49571 10.7352 7.60703 10.8651C8.15197 11.4879 8.73541 12.1722 9.07808 12.7505L9.08055 12.7547L9.08295 12.7589C9.46181 13.4275 9.93116 14.883 10.0336 16.4409L10.034 16.446L10.034 16.446C10.0611 16.9351 10.0793 17.4863 10.0942 17.9388C10.101 18.1463 10.1071 18.333 10.1132 18.4835L10.1136 18.4935V18.5035C10.1136 19.0358 9.69263 19.4568 9.16031 19.4568H6.28316C5.75083 19.4568 5.32991 19.0358 5.32991 18.5035V17.6758C5.32991 17.654 5.32045 17.6204 5.27901 17.5873C4.23538 16.8636 3.23792 15.9919 2.67036 15.3196C2.31567 14.9052 2.04246 14.3263 1.82728 13.7132C1.60887 13.091 1.43649 12.393 1.30197 11.7103C1.03312 10.3459 0.907388 9.00102 0.876804 8.35875C0.83514 7.50448 1.38262 6.91816 2.04543 6.79412ZM4.04385 10.9443C3.94809 10.771 3.86352 10.6255 3.78516 10.4908C3.77501 10.4733 3.76496 10.456 3.755 10.4389C3.63768 10.2369 3.52912 10.0476 3.42623 9.8281C3.12989 9.1959 2.86108 8.55918 2.73122 8.12788C2.63199 7.81758 2.40963 7.74333 2.22937 7.77706C2.04993 7.81064 1.85855 7.96299 1.87563 8.3104L1.87567 8.31118C1.90421 8.91041 2.02481 10.2062 2.2831 11.517C2.41216 12.1719 2.57356 12.82 2.77084 13.382C2.97108 13.9525 3.19505 14.3952 3.43092 14.6704L3.43345 14.6733L3.43344 14.6733C3.9284 15.26 4.85688 16.0788 5.85833 16.7721L5.86613 16.7775L5.87372 16.7832C6.14309 16.9852 6.32991 17.3045 6.32991 17.6758V18.4568H9.11135C9.10571 18.3082 9.1001 18.1374 9.09405 17.9531C9.07938 17.5067 9.06213 16.9816 9.03564 16.504C8.94097 15.0714 8.50624 13.7724 8.21526 13.256C7.92717 12.7714 7.40929 12.1577 6.85278 11.5217L6.84942 11.5178L6.84944 11.5178C6.75354 11.4059 6.65333 11.2912 6.55134 11.1744C6.17371 10.7419 5.77182 10.2817 5.47508 9.83724C5.43241 9.77579 5.3871 9.75596 5.33925 9.75022C5.27917 9.74301 5.20037 9.75898 5.12929 9.80341L5.12543 9.80582L5.12154 9.80815C5.01796 9.8703 4.94073 9.96205 4.90982 10.0813C4.88671 10.1704 4.87951 10.3139 4.95366 10.5235C4.98355 10.5782 5.0145 10.6355 5.04654 10.6958L5.05054 10.7028L5.07076 10.7381C5.08818 10.7683 5.11257 10.8101 5.14031 10.8563C5.19909 10.9543 5.2615 11.0529 5.3037 11.1092L5.293 11.1172C5.35737 11.2025 5.43179 11.2954 5.51605 11.396C5.70296 11.6191 5.9189 11.8576 6.1503 12.1133C6.19296 12.1604 6.23615 12.2081 6.27978 12.2564C6.46488 12.4613 6.4488 12.7775 6.24388 12.9626C6.03895 13.1477 5.72277 13.1316 5.53768 12.9267C5.4959 12.8805 5.45393 12.8341 5.41195 12.7877C5.18107 12.5327 4.94989 12.2773 4.74953 12.0382C4.51773 11.7615 4.29931 11.4745 4.16305 11.2035C4.11749 11.1163 4.07777 11.0298 4.04385 10.9443Z" fill="#ADADAD"/>
<path fill-rule="evenodd" clip-rule="evenodd" d="M19.9546 6.79412C19.2929 6.67031 18.5702 7.01917 18.3143 7.82968L18.3132 7.83312L18.3121 7.83657C18.2144 8.1624 18.0035 8.67677 17.7439 9.241C17.6395 9.12349 17.5202 9.02752 17.3967 8.95293C16.9246 8.6603 16.1477 8.6176 15.6983 9.27442L15.6949 9.2794L15.695 9.27942C15.4377 9.66523 15.094 10.0592 14.7229 10.4847C14.6147 10.6086 14.5043 10.7352 14.393 10.8651C13.848 11.4879 13.2646 12.1722 12.9219 12.7505L12.9194 12.7547L12.9171 12.7589C12.5382 13.4275 12.0688 14.883 11.9664 16.4409L11.966 16.446L11.966 16.446C11.9389 16.9351 11.9207 17.4863 11.9058 17.9388C11.899 18.1463 11.8929 18.333 11.8868 18.4835L11.8864 18.4935V18.5035C11.8864 19.0358 12.3074 19.4568 12.8397 19.4568H15.7168C16.2492 19.4568 16.6701 19.0358 16.6701 18.5035V17.6758C16.6701 17.654 16.6795 17.6204 16.721 17.5873C17.7646 16.8636 18.7621 15.9919 19.3296 15.3196C19.6843 14.9052 19.9575 14.3263 20.1727 13.7132C20.3911 13.091 20.5635 12.393 20.698 11.7103C20.9669 10.3459 21.0926 9.00102 21.1232 8.35875C21.1649 7.50448 20.6174 6.91816 19.9546 6.79412ZM17.9562 10.9443C18.0519 10.771 18.1365 10.6255 18.2148 10.4908C18.225 10.4733 18.235 10.456 18.245 10.4389C18.3623 10.2369 18.4709 10.0476 18.5738 9.8281C18.8701 9.1959 19.1389 8.55918 19.2688 8.12788C19.368 7.81758 19.5904 7.74333 19.7706 7.77706C19.9501 7.81064 20.1415 7.96299 20.1244 8.3104L20.1243 8.31118C20.0958 8.91041 19.9752 10.2062 19.7169 11.517C19.5878 12.1719 19.4264 12.82 19.2292 13.382C19.0289 13.9525 18.805 14.3952 18.5691 14.6704L18.5666 14.6733L18.5666 14.6733C18.0716 15.26 17.1431 16.0788 16.1417 16.7721L16.1339 16.7775L16.1263 16.7832C15.8569 16.9852 15.6701 17.3045 15.6701 17.6758V18.4568H12.8886C12.8943 18.3082 12.8999 18.1374 12.906 17.9531C12.9206 17.5067 12.9379 16.9816 12.9644 16.504C13.059 15.0714 13.4938 13.7724 13.7847 13.256C14.0728 12.7714 14.5907 12.1577 15.1472 11.5217L15.1506 11.5178L15.1506 11.5178C15.2465 11.4059 15.3467 11.2912 15.4487 11.1744C15.8263 10.7419 16.2282 10.2817 16.5249 9.83724C16.5676 9.77579 16.6129 9.75596 16.6607 9.75022C16.7208 9.74301 16.7996 9.75898 16.8707 9.80341L16.8746 9.80582L16.8785 9.80815C16.982 9.8703 17.0593 9.96205 17.0902 10.0813C17.1133 10.1704 17.1205 10.3139 17.0463 10.5235C17.0164 10.5782 16.9855 10.6355 16.9535 10.6958L16.9495 10.7028L16.9292 10.7381C16.9118 10.7683 16.8874 10.8101 16.8597 10.8563C16.8009 10.9543 16.7385 11.0529 16.6963 11.1092L16.707 11.1172C16.6426 11.2025 16.5682 11.2954 16.484 11.396C16.297 11.6191 16.0811 11.8576 15.8497 12.1133C15.807 12.1604 15.7638 12.2081 15.7202 12.2564C15.5351 12.4613 15.5512 12.7775 15.7561 12.9626C15.9611 13.1477 16.2772 13.1316 16.4623 12.9267C16.5041 12.8805 16.5461 12.8341 16.5881 12.7877C16.8189 12.5327 17.0501 12.2773 17.2505 12.0382C17.4823 11.7615 17.7007 11.4745 17.837 11.2035C17.8825 11.1163 17.9222 11.0298 17.9562 10.9443Z" fill="#ADADAD"/>
</svg>
