<svg width="24" height="24" viewBox="0 0 24 24" fill="none" xmlns="http://www.w3.org/2000/svg">
<path fill-rule="evenodd" clip-rule="evenodd" d="M6.44673 3.64604C7.14075 2.90656 8.10423 2.54346 9.03705 2.54346C9.954 2.54346 10.8903 2.9087 11.578 3.5964L11.7298 3.74822L11.8725 3.59987L11.876 3.5964C12.5851 2.8873 13.5025 2.54346 14.4169 2.54346C15.3339 2.54346 16.2702 2.9087 16.9579 3.5964C18.3509 4.9894 18.3605 7.27896 16.9551 8.64174L12.4451 13.1517C12.0528 13.5441 11.4012 13.5441 11.0089 13.1517L6.5552 8.69806C5.19183 7.33469 5.08835 5.07498 6.44673 3.64604ZM9.03705 3.54346C8.35452 3.54346 7.66326 3.81051 7.17499 4.33134L7.17244 4.33406C6.2068 5.3488 6.26133 6.98997 7.26231 7.99095L11.7152 12.4439C11.7154 12.4439 11.7156 12.444 11.7159 12.4442C11.7179 12.445 11.7218 12.446 11.727 12.446C11.7322 12.446 11.7361 12.445 11.7381 12.4442C11.7384 12.444 11.7386 12.4439 11.7388 12.4439L16.2537 7.92889L16.2567 7.92599C17.2523 6.96304 17.2609 5.31366 16.2508 4.30351C15.7561 3.80882 15.0765 3.54346 14.4169 3.54346C13.7563 3.54346 13.0986 3.78974 12.5864 4.3002L11.7438 5.17643L10.8709 4.30351C10.3762 3.80882 9.69663 3.54346 9.03705 3.54346Z" fill="#0D65B3"/>
<path fill-rule="evenodd" clip-rule="evenodd" d="M3.04543 8.79412C3.70706 8.67031 4.42978 9.01917 4.68573 9.82968L4.68682 9.83312L4.68786 9.83657C4.7856 10.1624 4.9965 10.6768 5.25613 11.241C5.36053 11.1235 5.47977 11.0275 5.60326 10.9529C6.07544 10.6603 6.85227 10.6176 7.30168 11.2744L7.30508 11.2794L7.30505 11.2794C7.56226 11.6652 7.90596 12.0592 8.27715 12.4847C8.38526 12.6086 8.49571 12.7352 8.60703 12.8651C9.15197 13.4879 9.73541 14.1722 10.0781 14.7505L10.0806 14.7547L10.0829 14.7589C10.4618 15.4275 10.9312 16.883 11.0336 18.4409L11.034 18.446L11.034 18.446C11.0611 18.9351 11.0793 19.4863 11.0942 19.9388C11.101 20.1463 11.1071 20.333 11.1132 20.4835L11.1136 20.4935V20.5035C11.1136 21.0358 10.6926 21.4568 10.1603 21.4568H7.28316C6.75083 21.4568 6.32991 21.0358 6.32991 20.5035V19.6758C6.32991 19.654 6.32045 19.6204 6.27901 19.5873C5.23538 18.8636 4.23792 17.9919 3.67036 17.3196C3.31567 16.9052 3.04246 16.3263 2.82728 15.7132C2.60887 15.091 2.43649 14.393 2.30197 13.7103C2.03312 12.3459 1.90739 11.001 1.8768 10.3587C1.83514 9.50448 2.38262 8.91816 3.04543 8.79412ZM5.04385 12.9443C4.94809 12.771 4.86352 12.6255 4.78516 12.4908C4.77501 12.4733 4.76496 12.456 4.755 12.4389C4.63768 12.2369 4.52912 12.0476 4.42623 11.8281C4.12989 11.1959 3.86108 10.5592 3.73122 10.1279C3.63199 9.81758 3.40963 9.74333 3.22937 9.77706C3.04993 9.81064 2.85855 9.96299 2.87563 10.3104L2.87567 10.3112C2.90421 10.9104 3.02481 12.2062 3.2831 13.517C3.41216 14.1719 3.57356 14.82 3.77084 15.382C3.97108 15.9525 4.19505 16.3952 4.43092 16.6704L4.43345 16.6733L4.43344 16.6733C4.9284 17.26 5.85688 18.0788 6.85833 18.7721L6.86613 18.7775L6.87372 18.7832C7.14309 18.9852 7.32991 19.3045 7.32991 19.6758V20.4568H10.1114C10.1057 20.3082 10.1001 20.1374 10.094 19.9531C10.0794 19.5067 10.0621 18.9816 10.0356 18.504C9.94097 17.0714 9.50624 15.7724 9.21526 15.256C8.92717 14.7714 8.40929 14.1577 7.85278 13.5217L7.84942 13.5178L7.84944 13.5178C7.75354 13.4059 7.65333 13.2912 7.55134 13.1744C7.17371 12.7419 6.77182 12.2817 6.47508 11.8372C6.43241 11.7758 6.3871 11.756 6.33925 11.7502C6.27917 11.743 6.20037 11.759 6.12929 11.8034L6.12543 11.8058L6.12154 11.8082C6.01796 11.8703 5.94073 11.9621 5.90982 12.0813C5.88671 12.1704 5.87951 12.3139 5.95366 12.5235C5.98355 12.5782 6.0145 12.6355 6.04654 12.6958L6.05054 12.7028L6.07076 12.7381C6.08818 12.7683 6.11257 12.8101 6.14031 12.8563C6.19909 12.9543 6.2615 13.0529 6.3037 13.1092L6.293 13.1172C6.35737 13.2025 6.43179 13.2954 6.51605 13.396C6.70296 13.6191 6.9189 13.8576 7.1503 14.1133C7.19296 14.1604 7.23615 14.2081 7.27978 14.2564C7.46488 14.4613 7.4488 14.7775 7.24388 14.9626C7.03895 15.1477 6.72277 15.1316 6.53768 14.9267C6.4959 14.8805 6.45393 14.8341 6.41195 14.7877C6.18107 14.5327 5.94989 14.2773 5.74953 14.0382C5.51773 13.7615 5.29931 13.4745 5.16305 13.2035C5.11749 13.1163 5.07777 13.0298 5.04385 12.9443Z" fill="#0D65B3"/>
<path fill-rule="evenodd" clip-rule="evenodd" d="M20.9546 8.79412C20.2929 8.67031 19.5702 9.01917 19.3143 9.82968L19.3132 9.83312L19.3121 9.83657C19.2144 10.1624 19.0035 10.6768 18.7439 11.241C18.6395 11.1235 18.5202 11.0275 18.3967 10.9529C17.9246 10.6603 17.1477 10.6176 16.6983 11.2744L16.6949 11.2794L16.695 11.2794C16.4377 11.6652 16.094 12.0592 15.7229 12.4847C15.6147 12.6086 15.5043 12.7352 15.393 12.8651C14.848 13.4879 14.2646 14.1722 13.9219 14.7505L13.9194 14.7547L13.9171 14.7589C13.5382 15.4275 13.0688 16.883 12.9664 18.4409L12.966 18.446L12.966 18.446C12.9389 18.9351 12.9207 19.4863 12.9058 19.9388C12.899 20.1463 12.8929 20.333 12.8868 20.4835L12.8864 20.4935V20.5035C12.8864 21.0358 13.3074 21.4568 13.8397 21.4568H16.7168C17.2492 21.4568 17.6701 21.0358 17.6701 20.5035V19.6758C17.6701 19.654 17.6795 19.6204 17.721 19.5873C18.7646 18.8636 19.7621 17.9919 20.3296 17.3196C20.6843 16.9052 20.9575 16.3263 21.1727 15.7132C21.3911 15.091 21.5635 14.393 21.698 13.7103C21.9669 12.3459 22.0926 11.001 22.1232 10.3587C22.1649 9.50448 21.6174 8.91816 20.9546 8.79412ZM18.9562 12.9443C19.0519 12.771 19.1365 12.6255 19.2148 12.4908C19.225 12.4733 19.235 12.456 19.245 12.4389C19.3623 12.2369 19.4709 12.0476 19.5738 11.8281C19.8701 11.1959 20.1389 10.5592 20.2688 10.1279C20.368 9.81758 20.5904 9.74333 20.7706 9.77706C20.9501 9.81064 21.1415 9.96299 21.1244 10.3104L21.1243 10.3112C21.0958 10.9104 20.9752 12.2062 20.7169 13.517C20.5878 14.1719 20.4264 14.82 20.2292 15.382C20.0289 15.9525 19.805 16.3952 19.5691 16.6704L19.5666 16.6733L19.5666 16.6733C19.0716 17.26 18.1431 18.0788 17.1417 18.7721L17.1339 18.7775L17.1263 18.7832C16.8569 18.9852 16.6701 19.3045 16.6701 19.6758V20.4568H13.8886C13.8943 20.3082 13.8999 20.1374 13.906 19.9531C13.9206 19.5067 13.9379 18.9816 13.9644 18.504C14.059 17.0714 14.4938 15.7724 14.7847 15.256C15.0728 14.7714 15.5907 14.1577 16.1472 13.5217L16.1506 13.5178L16.1506 13.5178C16.2465 13.4059 16.3467 13.2912 16.4487 13.1744C16.8263 12.7419 17.2282 12.2817 17.5249 11.8372C17.5676 11.7758 17.6129 11.756 17.6607 11.7502C17.7208 11.743 17.7996 11.759 17.8707 11.8034L17.8746 11.8058L17.8785 11.8082C17.982 11.8703 18.0593 11.9621 18.0902 12.0813C18.1133 12.1704 18.1205 12.3139 18.0463 12.5235C18.0164 12.5782 17.9855 12.6355 17.9535 12.6958L17.9495 12.7028L17.9292 12.7381C17.9118 12.7683 17.8874 12.8101 17.8597 12.8563C17.8009 12.9543 17.7385 13.0529 17.6963 13.1092L17.707 13.1172C17.6426 13.2025 17.5682 13.2954 17.484 13.396C17.297 13.6191 17.0811 13.8576 16.8497 14.1133C16.807 14.1604 16.7638 14.2081 16.7202 14.2564C16.5351 14.4613 16.5512 14.7775 16.7561 14.9626C16.9611 15.1477 17.2772 15.1316 17.4623 14.9267C17.5041 14.8805 17.5461 14.8341 17.5881 14.7877C17.8189 14.5327 18.0501 14.2773 18.2505 14.0382C18.4823 13.7615 18.7007 13.4745 18.837 13.2035C18.8825 13.1163 18.9222 13.0298 18.9562 12.9443Z" fill="#0D65B3"/>
</svg>
