<svg width="16" height="16" viewBox="0 0 16 16" fill="none" xmlns="http://www.w3.org/2000/svg">
<path fill-rule="evenodd" clip-rule="evenodd" d="M6.9 3C4.74609 3 3 4.74609 3 6.9C3 9.05391 4.74609 10.8 6.9 10.8C9.05391 10.8 10.8 9.05391 10.8 6.9C10.8 4.74609 9.05391 3 6.9 3ZM2 6.9C2 4.1938 4.1938 2 6.9 2C9.6062 2 11.8 4.1938 11.8 6.9C11.8 9.6062 9.6062 11.8 6.9 11.8C4.1938 11.8 2 9.6062 2 6.9Z" fill="#091A29"/>
<path fill-rule="evenodd" clip-rule="evenodd" d="M9.84664 9.84646C10.0419 9.6512 10.3585 9.6512 10.5537 9.84646L13.8537 13.1465C14.049 13.3417 14.049 13.6583 13.8537 13.8536C13.6585 14.0488 13.3419 14.0488 13.1466 13.8536L9.84664 10.5536C9.65138 10.3583 9.65138 10.0417 9.84664 9.84646Z" fill="#091A29"/>
</svg>
